<?xml version="1.0" encoding="UTF-8" standalone="no"?>
<!-- Created with Inkscape (http://www.inkscape.org/) -->

<svg
   width="120mm"
   height="120mm"
   viewBox="0 0 120 120"
   version="1.1"
   id="svg5"
   xml:space="preserve"
   inkscape:version="1.2.1 (9c6d41e410, 2022-07-14)"
   sodipodi:docname="epiboard_pos.svg"
   xmlns:inkscape="http://www.inkscape.org/namespaces/inkscape"
   xmlns:sodipodi="http://sodipodi.sourceforge.net/DTD/sodipodi-0.dtd"
   xmlns:xlink="http://www.w3.org/1999/xlink"
   xmlns="http://www.w3.org/2000/svg"
   xmlns:svg="http://www.w3.org/2000/svg"><sodipodi:namedview
     id="namedview7"
     pagecolor="#ffffff"
     bordercolor="#000000"
     borderopacity="0.25"
     inkscape:showpageshadow="2"
     inkscape:pageopacity="0.0"
     inkscape:pagecheckerboard="0"
     inkscape:deskcolor="#d1d1d1"
     inkscape:document-units="mm"
     showgrid="false"
     inkscape:zoom="1.4912879"
     inkscape:cx="238.04928"
     inkscape:cy="219.94412"
     inkscape:window-width="1920"
     inkscape:window-height="1017"
     inkscape:window-x="-8"
     inkscape:window-y="-5"
     inkscape:window-maximized="1"
     inkscape:current-layer="layer1" /><defs
     id="defs2"><linearGradient
       inkscape:collect="always"
       id="linearGradient12360"><stop
         style="stop-color:#de3f13;stop-opacity:1;"
         offset="0"
         id="stop12356" /><stop
         style="stop-color:#f39d0d;stop-opacity:1;"
         offset="1"
         id="stop12358" /></linearGradient><linearGradient
       inkscape:collect="always"
       id="linearGradient2799"><stop
         style="stop-color:#de3f13;stop-opacity:1;"
         offset="0"
         id="stop2795" /><stop
         style="stop-color:#f39d0d;stop-opacity:1;"
         offset="0.42499995"
         id="stop2797" /></linearGradient><linearGradient
       inkscape:collect="always"
       id="linearGradient631"><stop
         style="stop-color:#de3f13;stop-opacity:1;"
         offset="0"
         id="stop627" /><stop
         style="stop-color:#f39d0d;stop-opacity:1;"
         offset="1"
         id="stop629" /></linearGradient><linearGradient
       inkscape:collect="always"
       id="linearGradient623"><stop
         style="stop-color:#de3f13;stop-opacity:1;"
         offset="0"
         id="stop619" /><stop
         style="stop-color:#f39d0d;stop-opacity:1;"
         offset="1"
         id="stop621" /></linearGradient><linearGradient
       inkscape:collect="always"
       id="linearGradient615"><stop
         style="stop-color:#de3f13;stop-opacity:1;"
         offset="0"
         id="stop611" /><stop
         style="stop-color:#f39d0d;stop-opacity:1;"
         offset="1"
         id="stop613" /></linearGradient><linearGradient
       inkscape:collect="always"
       id="linearGradient543"><stop
         style="stop-color:#de3f13;stop-opacity:1;"
         offset="0"
         id="stop539" /><stop
         style="stop-color:#f39d0d;stop-opacity:1;"
         offset="1"
         id="stop541" /></linearGradient><linearGradient
       inkscape:collect="always"
       xlink:href="#linearGradient543"
       id="linearGradient545"
       x1="113.6371"
       y1="166.41936"
       x2="98.733871"
       y2="134.75"
       gradientUnits="userSpaceOnUse" /><linearGradient
       inkscape:collect="always"
       xlink:href="#linearGradient615"
       id="linearGradient617"
       x1="98.733879"
       y1="180.43549"
       x2="94.032257"
       y2="142.64516"
       gradientUnits="userSpaceOnUse" /><linearGradient
       inkscape:collect="always"
       xlink:href="#linearGradient623"
       id="linearGradient625"
       x1="126.94355"
       y1="162.95969"
       x2="113.37096"
       y2="133.33064"
       gradientUnits="userSpaceOnUse" /><linearGradient
       inkscape:collect="always"
       xlink:href="#linearGradient631"
       id="linearGradient633"
       x1="114.25806"
       y1="163.49193"
       x2="104.85484"
       y2="144.50807"
       gradientUnits="userSpaceOnUse" /><linearGradient
       inkscape:collect="always"
       xlink:href="#linearGradient2799"
       id="linearGradient641"
       x1="116.65323"
       y1="169.5242"
       x2="96.516129"
       y2="126.32258"
       gradientUnits="userSpaceOnUse" /><linearGradient
       inkscape:collect="always"
       xlink:href="#linearGradient12360"
       id="linearGradient12362"
       x1="92.790321"
       y1="174.93549"
       x2="133.95161"
       y2="175.55646"
       gradientUnits="userSpaceOnUse"
       gradientTransform="matrix(1.2702377,0,0,1.2702377,-68.064607,-118.52985)" /></defs><g
     inkscape:label="Calque 1"
     inkscape:groupmode="layer"
     id="layer1"><g
       id="g12104"
       transform="matrix(2,0,0,2,-157.48973,-268.91156)"><path
         style="fill:url(#linearGradient545);fill-opacity:1;stroke-width:0.264583"
         d="m 101.61693,155.68548 c 0,0 2.70504,-7.6846 5.72178,-11.97581 0.34193,-0.48639 3.88495,6.29261 4.19153,6.16533 0.30658,-0.12728 -1.88029,-9.56522 -3.30443,-9.71372 -1.42414,-0.1485 -6.374,8.65708 -6.36492,9.69154 0.002,0.26037 0.89944,-1.26382 0.61551,-0.50803 -1.46945,3.91144 -0.85947,6.34069 -0.85947,6.34069 z"
         id="path351"
         sodipodi:nodetypes="cszzssc" /><path
         style="fill:url(#linearGradient625);fill-opacity:1;stroke-width:0.264583"
         d="m 111.08669,144.68548 c 0,0 1.66331,-2.30645 3.99194,-3.54838 2.32863,-1.24194 5.25605,-2.12904 5.65524,-2.28428 0.39919,-0.15524 -0.26613,0.86492 -2.32863,4.36895 -2.0625,3.50403 -2.66129,6.07662 -1.99597,7.20766 0.66533,1.13105 1.70766,2.50605 1.81855,4.72379 0.11089,2.21775 1.10887,3.48186 1.66331,4.03629 0.55443,0.55444 3.19355,2.81654 2.83871,3.12702 -0.35484,0.31048 -1.375,-1.04234 -3.4375,-2.46169 -2.0625,-1.41936 -2.21774,-3.12702 -2.39517,-4.3246 -0.17741,-1.19758 -1.1754,-3.57056 -2.32862,-4.65726 -1.15323,-1.08669 1.19758,-5.67742 1.90725,-7.05242 0.70968,-1.375 1.0867,-1.99597 1.0867,-1.99597 0,0 -1.15323,0.3992 -1.375,0.44355 -0.22177,0.0444 0.51008,-0.11088 0.66532,-0.44355 0.15524,-0.33266 -4.10282,1.02017 -5.76613,2.86089 z"
         id="path459" /><path
         style="fill:url(#linearGradient617);fill-opacity:1;stroke-width:0.264583"
         d="m 103.06081,145.40168 c -0.24549,-0.42244 -5.81501,2.47671 -8.060444,7.52727 -4.08079,9.17874 -0.09409,13.86272 2.195453,16.96771 0.930677,1.26215 2.948181,2.66591 3.355901,2.82272 0.40773,0.15682 -2.571811,-2.91681 -2.885448,-4.32817 -0.316869,-1.42591 -0.940909,-3.35591 -0.940909,-3.82636 0,-0.47046 -0.188182,1.09772 0.06273,2.19545 0.25091,1.09773 -2.915399,-5.21053 -0.344998,-11.54181 3.752025,-9.24178 6.863205,-9.39437 6.617715,-9.81681 z"
         id="path465"
         sodipodi:nodetypes="zsssssssz" /><path
         style="fill:url(#linearGradient633);fill-opacity:1;stroke-width:0.264583"
         d="m 102.22968,158.49599 c 0,0 1.08204,-2.35227 5.67681,-3.18341 4.59477,-0.83113 6.49227,1.77205 6.61772,2.43068 0.12545,0.65864 -1.83477,0.81545 -2.46204,0.54886 -0.62728,-0.26659 -1.81909,-0.69 -1.69364,-1.12908 0.12546,-0.4391 0.43909,-0.4391 0.43909,-0.4391 0,0 0.0314,1.19182 0.73705,0.59591 0.70568,-0.59591 -0.23523,-1.16045 -0.89387,-1.19181 -0.65863,-0.0314 -5.78658,-0.4391 -8.42112,2.36795 z"
         id="path467" /><path
         style="fill:url(#linearGradient641);fill-opacity:1;fill-rule:nonzero;stroke-width:0.264583"
         d="m 123.33738,163.18485 c 0,0 -1.48977,-0.23523 -1.48977,1.01931 0,1.25455 0.64296,1.17614 0.90955,1.48977 0.26659,0.31364 -1.70932,0.78409 -5.95909,-1.09772 -4.24977,-1.88182 -7.26067,-2.82273 -7.26067,-2.82273 0,0 1.06636,0.83114 1.09772,1.09773 0.0314,0.26659 -2.39931,-1.69363 -6.27272,-1.30159 -3.8734,0.39205 -5.31613,3.85773 -5.206357,5.89636 0.109772,2.03863 1.458407,4.20272 2.869767,5.70818 1.41137,1.50545 6.96272,4.7359 8.97,4.3909 -1.96023,-1.75636 -3.34023,-1.75636 -4.54773,-6.06886 -1.2075,-4.31249 1.75636,-6.27272 4.93977,-5.5984 3.18341,0.67432 7.22931,1.8975 9.3934,1.38 2.16409,-0.5175 3.46568,-1.91318 3.73227,-2.97955 -0.0784,-1.06636 -1.17614,-1.1134 -1.17614,-1.1134 z"
         id="path469" /></g><text
       xml:space="preserve"
       style="font-size:16.1318px;fill:#333333;fill-opacity:1;fill-rule:nonzero;stroke-width:1.34432"
       x="24.212053"
       y="108.3698"
       id="text12160"
       transform="scale(1.0407964,0.9608027)"><tspan
         sodipodi:role="line"
         id="tspan12158"
         style="font-style:normal;font-variant:normal;font-weight:normal;font-stretch:normal;font-family:Roboto;-inkscape-font-specification:Roboto;fill:#333333;stroke-width:1.34432"
         x="24.212053"
         y="108.3698">Epi</tspan></text><text
       xml:space="preserve"
       style="font-size:16.1318px;fill:url(#linearGradient12362);fill-opacity:1;fill-rule:nonzero;stroke-width:1.34432"
       x="49.027245"
       y="108.58099"
       id="text12160-1"
       transform="scale(1.0407964,0.9608027)"><tspan
         sodipodi:role="line"
         id="tspan12158-1"
         style="font-style:normal;font-variant:normal;font-weight:normal;font-stretch:normal;font-family:Roboto;-inkscape-font-specification:Roboto;fill:url(#linearGradient12362);fill-opacity:1;stroke-width:1.34432"
         x="49.027245"
         y="108.58099">Board</tspan></text></g></svg>
